<svg width="1111.9524658203125px" height="221.66240234375px" xmlns="http://www.w3.org/2000/svg" viewBox="-305.9762329101562 -35.831201171874994 1111.9524658203125 221.66240234375" style="background-image: none;" preserveAspectRatio="xMidYMid"><defs><linearGradient id="editing-shadow-gradient1" x1="0" x2="0" y1="0" y2="1"><stop offset="0" stop-color="#ffffff" stop-opacity="0"></stop><stop offset="0.2" stop-color="#ffffff" stop-opacity="0"></stop><stop offset="1" stop-color="#ffffff" stop-opacity="1"></stop></linearGradient><linearGradient id="editing-shadow-gradient2" x1="-0.254709580222772" x2="1.2547095802227721" y1="-0.15605902899050716" y2="1.1560590289905073"><stop offset="0" stop-color="#0a0a0a"></stop><stop offset="1" stop-color="#ffffff"></stop></linearGradient><filter id="editing-shadow" x="-100%" y="-100%" width="300%" height="300%"><feGaussianBlur stdDeviation="2"></feGaussianBlur><feComposite operator="in" in2="SourceGraphic"></feComposite><feGaussianBlur stdDeviation="1"></feGaussianBlur></filter></defs><g transform="translate(250,75)"><g transform="translate(-36, -1.2)"><g transform="skewX(45)"><g filter="url(#editing-shadow)"><g transform="translate(-324.2149841785431, 60.49500274658203)"><path d="M40.21-85.19L54.04-85.19L54.04-20.16L54.04-20.16Q54.04-14.27 51.88-10.25L51.88-10.25L51.88-10.25Q49.73-6.23 46.11-3.79L46.11-3.79L46.11-3.79Q42.48-1.36 37.78-0.40L37.78-0.40L37.78-0.40Q33.08 0.57 28.09 0.57L28.09 0.57L28.09 0.57Q25.60 0.57 22.26 0.06L22.26 0.06L22.26 0.06Q18.92-0.45 15.35-1.53L15.35-1.53L15.35-1.53Q11.78-2.61 8.50-3.96L8.50-3.96L8.50-3.96Q5.21-5.32 2.95-7.02L2.95-7.02L8.72-16.20L8.72-16.20Q9.86-15.41 11.95-14.56L11.95-14.56L11.95-14.56Q14.05-13.71 16.54-12.97L16.54-12.97L16.54-12.97Q19.03-12.23 21.75-11.67L21.75-11.67L21.75-11.67Q24.47-11.10 26.85-11.10L26.85-11.10L26.85-11.10Q32.85-11.10 36.42-13.42L36.42-13.42L36.42-13.42Q39.99-15.75 40.21-21.30L40.21-21.30L40.21-85.19ZM103.77-53.58L103.77-64.23L103.77-64.23Q110.00-63.89 115.09-61.23L115.09-61.23L115.09-61.23Q120.19-58.57 123.65-54.21L123.65-54.21L123.65-54.21Q127.10-49.84 129.03-44.07L129.03-44.07L129.03-44.07Q130.95-38.29 130.95-31.72L130.95-31.72L130.95-31.72Q130.95-25.15 128.97-19.43L128.97-19.43L128.97-19.43Q126.99-13.71 123.48-9.46L123.48-9.46L123.48-9.46Q119.96-5.21 114.87-2.61L114.87-2.61L114.87-2.61Q109.77 0 103.77 0.45L103.77 0.45L103.77-10.42L103.77-10.42Q109.43-11.67 113.00-17.56L113.00-17.56L113.00-17.56Q116.57-23.45 116.57-31.72L116.57-31.72L116.57-31.72Q116.57-35.91 115.72-39.59L115.72-39.59L115.72-39.59Q114.87-43.27 113.17-46.22L113.17-46.22L113.17-46.22Q111.47-49.16 109.09-51.09L109.09-51.09L109.09-51.09Q106.71-53.02 103.77-53.58L103.77-53.58ZM72.16-31.95L72.16-31.95L72.16-31.95Q72.16-38.52 74.09-44.18L74.09-44.18L74.09-44.18Q76.01-49.84 79.58-54.09L79.58-54.09L79.58-54.09Q83.15-58.34 88.13-60.95L88.13-60.95L88.13-60.95Q93.12-63.55 99.12-64.12L99.12-64.12L99.12-53.58L99.12-53.58Q93.46-52.34 90.06-46.45L90.06-46.45L90.06-46.45Q86.66-40.55 86.66-32.29L86.66-32.29L86.66-32.29Q86.66-28.09 87.51-24.36L87.51-24.36L87.51-24.36Q88.36-20.62 89.95-17.67L89.95-17.67L89.95-17.67Q91.53-14.73 93.85-12.80L93.85-12.80L93.85-12.80Q96.18-10.88 99.12-10.42L99.12-10.42L99.12 0.45L99.12 0.45Q92.89 0 87.91-2.66L87.91-2.66L87.91-2.66Q82.92-5.32 79.41-9.63L79.41-9.63L79.41-9.63Q75.90-13.93 74.03-19.71L74.03-19.71L74.03-19.71Q72.16-25.49 72.16-31.95ZM148.74-63.89L160.97-63.89L162.45-57.43L162.45 0L148.74 0L148.74-63.89ZM196.32-56.87L196.32-56.87L196.32-56.87Q198.24-54.94 199.32-52.39L199.32-52.39L199.32-52.39Q200.39-49.84 200.90-47.07L200.90-47.07L200.90-47.07Q201.41-44.29 201.53-41.46L201.53-41.46L201.53-41.46Q201.64-38.63 201.64-35.91L201.64-35.91L201.64-2.27L201.64 0L187.82 0L187.82-34.78L187.82-34.78Q187.82-38.63 187.48-42.14L187.48-42.14L187.48-42.14Q187.14-45.65 185.89-48.37L185.89-48.37L185.89-48.37Q184.65-51.09 182.50-52.62L182.50-52.62L182.50-52.62Q180.34-54.15 176.49-54.15L176.49-54.15L176.49-54.15Q174.91-54.15 172.24-53.64L172.24-53.64L172.24-53.64Q169.58-53.13 167.09-52.00L167.09-52.00L167.09-60.72L167.09-60.72Q170.15-62.30 173.72-63.44L173.72-63.44L173.72-63.44Q177.29-64.57 180.68-64.57L180.68-64.57L180.68-64.57Q185.78-64.57 189.29-62.47L189.29-62.47L189.29-62.47Q192.80-60.38 196.32-56.87ZM220.56-63.89L232.79-63.89L234.27-57.43L234.27 0L220.56 0L220.56-63.89ZM268.14-56.87L268.14-56.87L268.14-56.87Q270.06-54.94 271.14-52.39L271.14-52.39L271.14-52.39Q272.21-49.84 272.72-47.07L272.72-47.07L272.72-47.07Q273.23-44.29 273.35-41.46L273.35-41.46L273.35-41.46Q273.46-38.63 273.46-35.91L273.46-35.91L273.46-2.27L273.46 0L259.64 0L259.64-34.78L259.64-34.78Q259.64-38.63 259.30-42.14L259.30-42.14L259.30-42.14Q258.96-45.65 257.71-48.37L257.71-48.37L257.71-48.37Q256.47-51.09 254.32-52.62L254.32-52.62L254.32-52.62Q252.16-54.15 248.31-54.15L248.31-54.15L248.31-54.15Q246.73-54.15 244.06-53.64L244.06-53.64L244.06-53.64Q241.40-53.13 238.91-52.00L238.91-52.00L238.91-60.72L238.91-60.72Q241.97-62.30 245.54-63.44L245.54-63.44L245.54-63.44Q249.11-64.57 252.50-64.57L252.50-64.57L252.50-64.57Q257.60-64.57 261.11-62.47L261.11-62.47L261.11-62.47Q264.63-60.38 268.14-56.87ZM340.18-63.89L354.00-63.89L354.00-63.89Q347.77-47.24 342.90-34.38L342.90-34.38L342.90-34.38Q338.03-21.52 334.41-11.84L334.41-11.84L334.41-11.84Q330.78-2.15 328.01 4.53L328.01 4.53L328.01 4.53Q325.23 11.21 322.91 15.69L322.91 15.69L322.91 15.69Q320.59 20.16 318.55 22.71L318.55 22.71L318.55 22.71Q316.51 25.26 314.36 26.62L314.36 26.62L314.36 26.62Q312.20 27.98 309.65 28.26L309.65 28.26L309.65 28.26Q307.11 28.55 303.82 28.55L303.82 28.55L303.82 28.55Q302.80 28.55 301.44 28.26L301.44 28.26L301.44 28.26Q300.08 27.98 298.78 27.58L298.78 27.58L298.78 27.58Q297.48 27.19 296.46 26.79L296.46 26.79L296.46 26.79Q295.44 26.39 295.10 26.28L295.10 26.28L295.10 26.28Q295.55 24.24 296.00 22.43L296.00 22.43L296.00 22.43Q296.34 20.84 296.74 19.43L296.74 19.43L296.74 19.43Q297.14 18.01 297.36 17.45L297.36 17.45L297.36 17.45Q298.27 17.45 300.14 18.01L300.14 18.01L300.14 18.01Q302.01 18.58 302.91 18.58L302.91 18.58L302.91 18.58Q304.73 18.58 306.14 18.41L306.14 18.41L306.14 18.41Q307.56 18.24 308.69 17.39L308.69 17.39L308.69 17.39Q309.82 16.54 310.84 14.90L310.84 14.90L310.84 14.90Q311.86 13.25 313.11 10.20L313.11 10.20L317.41 0L340.18-63.89ZM319.68-17.11L315.04-6.00L291.25-63.89L304.95-63.89L321.27-20.96L319.68-17.11ZM450.41-83.49L464-83.49L464 0L450.41 0L450.41-37.61L418.91-37.61L418.91-46.90L450.41-46.90L450.41-83.49ZM400.45 0L400.45-83.49L414.27-83.49L414.27 0L400.45 0ZM514.07-53.81L514.07-64.46L514.07-64.46Q520.19-63.89 525.12-61.17L525.12-61.17L525.12-61.17Q530.04-58.45 533.55-54.15L533.55-54.15L533.55-54.15Q537.07-49.84 538.94-44.29L538.94-44.29L538.94-44.29Q540.80-38.74 540.80-32.74L540.80-32.74L540.80-32.74Q540.80-30.02 540.46-27.30L540.46-27.30L501.61-27.30L501.61-37.27L527.78-37.27L527.78-37.27Q527.78-40.21 526.81-42.93L526.81-42.93L526.81-42.93Q525.85-45.65 523.98-47.97L523.98-47.97L523.98-47.97Q522.11-50.30 519.62-51.88L519.62-51.88L519.62-51.88Q517.13-53.47 514.07-53.81L514.07-53.81ZM513.62-10.65L513.62-10.65L513.62-10.65Q514.86-10.65 516.73-10.93L516.73-10.93L516.73-10.93Q518.60-11.21 520.70-11.95L520.70-11.95L520.70-11.95Q522.79-12.69 524.89-13.82L524.89-13.82L524.89-13.82Q526.98-14.95 528.57-16.54L528.57-16.54L533.55-8.95L533.55-8.95Q529.82-4.30 524.83-1.93L524.83-1.93L524.83-1.93Q519.85 0.45 512.14 0.45L512.14 0.45L512.14 0.45Q505.91 0.45 500.48-2.10L500.48-2.10L500.48-2.10Q495.04-4.64 491.19-9.06L491.19-9.06L491.19-9.06Q487.34-13.48 485.07-19.37L485.07-19.37L485.07-19.37Q482.80-25.26 482.80-32.06L482.80-32.06L482.80-32.06Q482.80-38.52 484.90-44.29L484.90-44.29L484.90-44.29Q487.00-50.07 490.62-54.43L490.62-54.43L490.62-54.43Q494.25-58.79 499.06-61.51L499.06-61.51L499.06-61.51Q503.88-64.23 509.43-64.57L509.43-64.57L509.43-53.70L509.43-53.70Q505.23-52.90 502.52-50.30L502.52-50.30L502.52-50.30Q499.80-47.69 498.27-44.35L498.27-44.35L498.27-44.35Q496.74-41.01 496.12-37.50L496.12-37.50L496.12-37.50Q495.49-33.98 495.49-31.49L495.49-31.49L495.49-31.49Q495.49-27.07 496.57-23.28L496.57-23.28L496.57-23.28Q497.64-19.48 499.91-16.71L499.91-16.71L499.91-16.71Q502.18-13.93 505.52-12.29L505.52-12.29L505.52-12.29Q508.86-10.65 513.62-10.65ZM573.32-63.89L573.32 0L559.50 0L559.50-63.89L573.32-63.89ZM574.56-84.28L574.56-84.28L574.56-84.28Q574.56-80.88 572.18-78.56L572.18-78.56L572.18-78.56Q569.80-76.24 566.41-76.24L566.41-76.24L566.41-76.24Q563.01-76.24 560.69-78.62L560.69-78.62L560.69-78.62Q558.36-81.00 558.36-84.28L558.36-84.28L558.36-84.28Q558.36-87.68 560.74-90.06L560.74-90.06L560.74-90.06Q563.12-92.44 566.41-92.44L566.41-92.44L566.41-92.44Q569.80-92.44 572.18-90.06L572.18-90.06L572.18-90.06Q574.56-87.68 574.56-84.28ZM592.57-63.89L604.81-63.89L606.28-57.43L606.28 0L592.57 0L592.57-63.89ZM640.15-56.87L640.15-56.87L640.15-56.87Q642.08-54.94 643.15-52.39L643.15-52.39L643.15-52.39Q644.23-49.84 644.74-47.07L644.74-47.07L644.74-47.07Q645.25-44.29 645.36-41.46L645.36-41.46L645.36-41.46Q645.48-38.63 645.48-35.91L645.48-35.91L645.48-2.27L645.48 0L631.66 0L631.66-34.78L631.66-34.78Q631.66-38.63 631.32-42.14L631.32-42.14L631.32-42.14Q630.98-45.65 629.73-48.37L629.73-48.37L629.73-48.37Q628.48-51.09 626.33-52.62L626.33-52.62L626.33-52.62Q624.18-54.15 620.33-54.15L620.33-54.15L620.33-54.15Q618.74-54.15 616.08-53.64L616.08-53.64L616.08-53.64Q613.42-53.13 610.93-52.00L610.93-52.00L610.93-60.72L610.93-60.72Q613.98-62.30 617.55-63.44L617.55-63.44L617.55-63.44Q621.12-64.57 624.52-64.57L624.52-64.57L624.52-64.57Q629.62-64.57 633.13-62.47L633.13-62.47L633.13-62.47Q636.64-60.38 640.15-56.87Z" fill="url(#editing-shadow-gradient1)"></path></g></g></g></g><g><g transform="translate(-324.2149841785431, 60.49500274658203)"><path d="M40.21-85.19L54.04-85.19L54.04-20.16L54.04-20.16Q54.04-14.27 51.88-10.25L51.88-10.25L51.88-10.25Q49.73-6.23 46.11-3.79L46.11-3.79L46.11-3.79Q42.48-1.36 37.78-0.40L37.78-0.40L37.78-0.40Q33.08 0.57 28.09 0.57L28.09 0.57L28.09 0.57Q25.60 0.57 22.26 0.06L22.26 0.06L22.26 0.06Q18.92-0.45 15.35-1.53L15.35-1.53L15.35-1.53Q11.78-2.61 8.50-3.96L8.50-3.96L8.50-3.96Q5.21-5.32 2.95-7.02L2.95-7.02L8.72-16.20L8.72-16.20Q9.86-15.41 11.95-14.56L11.95-14.56L11.95-14.56Q14.05-13.71 16.54-12.97L16.54-12.97L16.54-12.97Q19.03-12.23 21.75-11.67L21.75-11.67L21.75-11.67Q24.47-11.10 26.85-11.10L26.85-11.10L26.85-11.10Q32.85-11.10 36.42-13.42L36.42-13.42L36.42-13.42Q39.99-15.75 40.21-21.30L40.21-21.30L40.21-85.19ZM103.77-53.58L103.77-64.23L103.77-64.23Q110.00-63.89 115.09-61.23L115.09-61.23L115.09-61.23Q120.19-58.57 123.65-54.21L123.65-54.21L123.65-54.21Q127.10-49.84 129.03-44.07L129.03-44.07L129.03-44.07Q130.95-38.29 130.95-31.72L130.95-31.72L130.95-31.72Q130.95-25.15 128.97-19.43L128.97-19.43L128.97-19.43Q126.99-13.71 123.48-9.46L123.48-9.46L123.48-9.46Q119.96-5.21 114.87-2.61L114.87-2.61L114.87-2.61Q109.77 0 103.77 0.45L103.77 0.45L103.77-10.42L103.77-10.42Q109.43-11.67 113.00-17.56L113.00-17.56L113.00-17.56Q116.57-23.45 116.57-31.72L116.57-31.72L116.57-31.72Q116.57-35.91 115.72-39.59L115.72-39.59L115.72-39.59Q114.87-43.27 113.17-46.22L113.17-46.22L113.17-46.22Q111.47-49.16 109.09-51.09L109.09-51.09L109.09-51.09Q106.71-53.02 103.77-53.58L103.77-53.58ZM72.16-31.95L72.16-31.95L72.16-31.95Q72.16-38.52 74.09-44.18L74.09-44.18L74.09-44.18Q76.01-49.84 79.58-54.09L79.58-54.09L79.58-54.09Q83.15-58.34 88.13-60.95L88.13-60.95L88.13-60.95Q93.12-63.55 99.12-64.12L99.12-64.12L99.12-53.58L99.12-53.58Q93.46-52.34 90.06-46.45L90.06-46.45L90.06-46.45Q86.66-40.55 86.66-32.29L86.66-32.29L86.66-32.29Q86.66-28.09 87.51-24.36L87.51-24.36L87.51-24.36Q88.36-20.62 89.95-17.67L89.95-17.67L89.95-17.67Q91.53-14.73 93.85-12.80L93.85-12.80L93.85-12.80Q96.18-10.88 99.12-10.42L99.12-10.42L99.12 0.45L99.12 0.45Q92.89 0 87.91-2.66L87.91-2.66L87.91-2.66Q82.92-5.32 79.41-9.63L79.41-9.63L79.41-9.63Q75.90-13.93 74.03-19.71L74.03-19.71L74.03-19.71Q72.16-25.49 72.16-31.95ZM148.74-63.89L160.97-63.89L162.45-57.43L162.45 0L148.74 0L148.74-63.89ZM196.32-56.87L196.32-56.87L196.32-56.87Q198.24-54.94 199.32-52.39L199.32-52.39L199.32-52.39Q200.39-49.84 200.90-47.07L200.90-47.07L200.90-47.07Q201.41-44.29 201.53-41.46L201.53-41.46L201.53-41.46Q201.64-38.63 201.64-35.91L201.64-35.91L201.64-2.27L201.64 0L187.82 0L187.82-34.78L187.82-34.78Q187.82-38.63 187.48-42.14L187.48-42.14L187.48-42.14Q187.14-45.65 185.89-48.37L185.89-48.37L185.89-48.37Q184.65-51.09 182.50-52.62L182.50-52.62L182.50-52.62Q180.34-54.15 176.49-54.15L176.49-54.15L176.49-54.15Q174.91-54.15 172.24-53.64L172.24-53.64L172.24-53.64Q169.58-53.13 167.09-52.00L167.09-52.00L167.09-60.72L167.09-60.72Q170.15-62.30 173.72-63.44L173.72-63.44L173.72-63.44Q177.29-64.57 180.68-64.57L180.68-64.57L180.68-64.57Q185.78-64.57 189.29-62.47L189.29-62.47L189.29-62.47Q192.80-60.38 196.32-56.87ZM220.56-63.89L232.79-63.89L234.27-57.43L234.27 0L220.56 0L220.56-63.89ZM268.14-56.87L268.14-56.87L268.14-56.87Q270.06-54.94 271.14-52.39L271.14-52.39L271.14-52.39Q272.21-49.84 272.72-47.07L272.72-47.07L272.72-47.07Q273.23-44.29 273.35-41.46L273.35-41.46L273.35-41.46Q273.46-38.63 273.46-35.91L273.46-35.91L273.46-2.27L273.46 0L259.64 0L259.64-34.78L259.64-34.78Q259.64-38.63 259.30-42.14L259.30-42.14L259.30-42.14Q258.96-45.65 257.71-48.37L257.71-48.37L257.71-48.37Q256.47-51.09 254.32-52.62L254.32-52.62L254.32-52.62Q252.16-54.15 248.31-54.15L248.31-54.15L248.31-54.15Q246.73-54.15 244.06-53.64L244.06-53.64L244.06-53.64Q241.40-53.13 238.91-52.00L238.91-52.00L238.91-60.72L238.91-60.72Q241.97-62.30 245.54-63.44L245.54-63.44L245.54-63.44Q249.11-64.57 252.50-64.57L252.50-64.57L252.50-64.57Q257.60-64.57 261.11-62.47L261.11-62.47L261.11-62.47Q264.63-60.38 268.14-56.87ZM340.18-63.89L354.00-63.89L354.00-63.89Q347.77-47.24 342.90-34.38L342.90-34.38L342.90-34.38Q338.03-21.52 334.41-11.84L334.41-11.84L334.41-11.84Q330.78-2.15 328.01 4.53L328.01 4.53L328.01 4.53Q325.23 11.21 322.91 15.69L322.91 15.69L322.91 15.69Q320.59 20.16 318.55 22.71L318.55 22.71L318.55 22.71Q316.51 25.26 314.36 26.62L314.36 26.62L314.36 26.62Q312.20 27.98 309.65 28.26L309.65 28.26L309.65 28.26Q307.11 28.55 303.82 28.55L303.82 28.55L303.82 28.55Q302.80 28.55 301.44 28.26L301.44 28.26L301.44 28.26Q300.08 27.98 298.78 27.58L298.78 27.58L298.78 27.58Q297.48 27.19 296.46 26.79L296.46 26.79L296.46 26.79Q295.44 26.39 295.10 26.28L295.10 26.28L295.10 26.28Q295.55 24.24 296.00 22.43L296.00 22.43L296.00 22.43Q296.34 20.84 296.74 19.43L296.74 19.43L296.74 19.43Q297.14 18.01 297.36 17.45L297.36 17.45L297.36 17.45Q298.27 17.45 300.14 18.01L300.14 18.01L300.14 18.01Q302.01 18.58 302.91 18.58L302.91 18.58L302.91 18.58Q304.73 18.58 306.14 18.41L306.14 18.41L306.14 18.41Q307.56 18.24 308.69 17.39L308.69 17.39L308.69 17.39Q309.82 16.54 310.84 14.90L310.84 14.90L310.84 14.90Q311.86 13.25 313.11 10.20L313.11 10.20L317.41 0L340.18-63.89ZM319.68-17.11L315.04-6.00L291.25-63.89L304.95-63.89L321.27-20.96L319.68-17.11ZM450.41-83.49L464-83.49L464 0L450.41 0L450.41-37.61L418.91-37.61L418.91-46.90L450.41-46.90L450.41-83.49ZM400.45 0L400.45-83.49L414.27-83.49L414.27 0L400.45 0ZM514.07-53.81L514.07-64.46L514.07-64.46Q520.19-63.89 525.12-61.17L525.12-61.17L525.12-61.17Q530.04-58.45 533.55-54.15L533.55-54.15L533.55-54.15Q537.07-49.84 538.94-44.29L538.94-44.29L538.94-44.29Q540.80-38.74 540.80-32.74L540.80-32.74L540.80-32.74Q540.80-30.02 540.46-27.30L540.46-27.30L501.61-27.30L501.61-37.27L527.78-37.27L527.78-37.27Q527.78-40.21 526.81-42.93L526.81-42.93L526.81-42.93Q525.85-45.65 523.98-47.97L523.98-47.97L523.98-47.97Q522.11-50.30 519.62-51.88L519.62-51.88L519.62-51.88Q517.13-53.47 514.07-53.81L514.07-53.81ZM513.62-10.65L513.62-10.65L513.62-10.65Q514.86-10.65 516.73-10.93L516.73-10.93L516.73-10.93Q518.60-11.21 520.70-11.95L520.70-11.95L520.70-11.95Q522.79-12.69 524.89-13.82L524.89-13.82L524.89-13.82Q526.98-14.95 528.57-16.54L528.57-16.54L533.55-8.95L533.55-8.95Q529.82-4.30 524.83-1.93L524.83-1.93L524.83-1.93Q519.85 0.45 512.14 0.45L512.14 0.45L512.14 0.45Q505.91 0.45 500.48-2.10L500.48-2.10L500.48-2.10Q495.04-4.64 491.19-9.06L491.19-9.06L491.19-9.06Q487.34-13.48 485.07-19.37L485.07-19.37L485.07-19.37Q482.80-25.26 482.80-32.06L482.80-32.06L482.80-32.06Q482.80-38.52 484.90-44.29L484.90-44.29L484.90-44.29Q487.00-50.07 490.62-54.43L490.62-54.43L490.62-54.43Q494.25-58.79 499.06-61.51L499.06-61.51L499.06-61.51Q503.88-64.23 509.43-64.57L509.43-64.57L509.43-53.70L509.43-53.70Q505.23-52.90 502.52-50.30L502.52-50.30L502.52-50.30Q499.80-47.69 498.27-44.35L498.27-44.35L498.27-44.35Q496.74-41.01 496.12-37.50L496.12-37.50L496.12-37.50Q495.49-33.98 495.49-31.49L495.49-31.49L495.49-31.49Q495.49-27.07 496.57-23.28L496.57-23.28L496.57-23.28Q497.64-19.48 499.91-16.71L499.91-16.71L499.91-16.71Q502.18-13.93 505.52-12.29L505.52-12.29L505.52-12.29Q508.86-10.65 513.62-10.65ZM573.32-63.89L573.32 0L559.50 0L559.50-63.89L573.32-63.89ZM574.56-84.28L574.56-84.28L574.56-84.28Q574.56-80.88 572.18-78.56L572.18-78.56L572.18-78.56Q569.80-76.24 566.41-76.24L566.41-76.24L566.41-76.24Q563.01-76.24 560.69-78.62L560.69-78.62L560.69-78.62Q558.36-81.00 558.36-84.28L558.36-84.28L558.36-84.28Q558.36-87.68 560.74-90.06L560.74-90.06L560.74-90.06Q563.12-92.44 566.41-92.44L566.41-92.44L566.41-92.44Q569.80-92.44 572.18-90.06L572.18-90.06L572.18-90.06Q574.56-87.68 574.56-84.28ZM592.57-63.89L604.81-63.89L606.28-57.43L606.28 0L592.57 0L592.57-63.89ZM640.15-56.87L640.15-56.87L640.15-56.87Q642.08-54.94 643.15-52.39L643.15-52.39L643.15-52.39Q644.23-49.84 644.74-47.07L644.74-47.07L644.74-47.07Q645.25-44.29 645.36-41.46L645.36-41.46L645.36-41.46Q645.48-38.63 645.48-35.91L645.48-35.91L645.48-2.27L645.48 0L631.66 0L631.66-34.78L631.66-34.78Q631.66-38.63 631.32-42.14L631.32-42.14L631.32-42.14Q630.98-45.65 629.73-48.37L629.73-48.37L629.73-48.37Q628.48-51.09 626.33-52.62L626.33-52.62L626.33-52.62Q624.18-54.15 620.33-54.15L620.33-54.15L620.33-54.15Q618.74-54.15 616.08-53.64L616.08-53.64L616.08-53.64Q613.42-53.13 610.93-52.00L610.93-52.00L610.93-60.72L610.93-60.72Q613.98-62.30 617.55-63.44L617.55-63.44L617.55-63.44Q621.12-64.57 624.52-64.57L624.52-64.57L624.52-64.57Q629.62-64.57 633.13-62.47L633.13-62.47L633.13-62.47Q636.64-60.38 640.15-56.87Z" fill="url(#editing-shadow-gradient2)"></path></g></g></g><style>text {
  font-size: 64px;
  font-family: Arial Black;
  dominant-baseline: central;
  text-anchor: middle;
}</style></svg>