<svg width="736.720068359375px" height="180.07607421875px" xmlns="http://www.w3.org/2000/svg" viewBox="-118.36003417968749 -15.038037109374997 736.720068359375 180.07607421875" style="background-image: none;" preserveAspectRatio="xMidYMid"><defs><filter id="editing-vintage" x="-100%" y="-100%" width="300%" height="300%"><feConvolveMatrix in="SourceGraphic" result="extrude" order="9,9" divisor="1" kernelMatrix="1,0,0,0,0,0,0,0,0,0,1,0,0,0,0,0,0,0,0,0,1,0,0,0,0,0,0,0,0,0,1,0,0,0,0,0,0,0,0,0,1,0,0,0,0,0,0,0,0,0,1,0,0,0,0,0,0,0,0,0,1,0,0,0,0,0,0,0,0,0,1,0,0,0,0,0,0,0,0,0,1"> </feConvolveMatrix><feFlood flood-color="#900" result="flood-extrude"></feFlood><feComposite operator="in" in="flood-extrude" in2="extrude" result="extrude-color"></feComposite><feOffset dx="5" dy="5" in="extrude-color" result="extrude-offset"></feOffset><feColorMatrix in="SourceGraphic" result="stroke" type="matrix" values="0 0 0 0 0 0 0 0 0 0 0 0 0 0 0 0 1 0 0 0 "></feColorMatrix><feColorMatrix in="SourceGraphic" result="fill" type="matrix" values="0 0 0 0 0 0 0 0 0 0 0 0 0 0 0 1 0 0 1 0 "></feColorMatrix><feConvolveMatrix in="stroke" result="inner-shadow" order="5,5" divisor="1" kernelMatrix="1 0 0 0 0 0 1 0 0 0 0 0 1 0 0 0 0 0 1 0 0 0 0 0 1 "></feConvolveMatrix><feOffset dx="1" dy="1" in="inner-shadow" result="offset"></feOffset><feComposite operator="in" in="offset" in2="SourceAlpha" result="comp"></feComposite><feFlood flood-color="#000" result="flood3"></feFlood><feComposite operator="in" in="flood3" in2="comp" result="comp2"></feComposite><feColorMatrix in="comp2" result="comp3" type="matrix" values="1 0 0 0 0 0 1 0 0 0 0 0 1 0 0 0 0 0 0.5 0 "></feColorMatrix><feFlood flood-color="#f00" result="flood1"></feFlood><feComposite operator="in" in="flood1" in2="fill" result="fill2"></feComposite><feFlood flood-color="#fff" result="flood2"></feFlood><feComposite operator="in" in="flood2" in2="stroke" result="stroke2"></feComposite><feMerge result="obj"><feMergeNode in="extrude-offset"></feMergeNode><feMergeNode in="fill2"></feMergeNode><feMergeNode in="comp3"></feMergeNode></feMerge><feConvolveMatrix in="SourceAlpha" result="shadow" order="9,9" divisor="1" kernelMatrix="1,0,0,0,0,0,0,0,0,0,1,0,0,0,0,0,0,0,0,0,1,0,0,0,0,0,0,0,0,0,1,0,0,0,0,0,0,0,0,0,1,0,0,0,0,0,0,0,0,0,1,0,0,0,0,0,0,0,0,0,1,0,0,0,0,0,0,0,0,0,1,0,0,0,0,0,0,0,0,0,1"></feConvolveMatrix><feOffset dx="15" dy="15" in="shadow" result="shadow-offset"></feOffset><feFlood flood-color="#444444" result="flood-shadow"></feFlood><feComposite operator="in" in="flood-shadow" in2="shadow-offset" result="shadow-color"></feComposite><feMerge><feMergeNode in="shadow-color"></feMergeNode><feMergeNode in="obj"></feMergeNode></feMerge></filter></defs><g transform="translate(-9,-9)"><g filter="url(#editing-vintage)"><g transform="translate(-4.720010757446289, 122.00718688964844)"><path d="M-11.01 13.94L-11.01 13.94L-11.01 13.94Q-5.86 13.33-2.63 6.67L-2.63 6.67L-2.63 6.67Q0.71-0.10 3.74-15.66L3.74-15.66L13.53-66.66L35.45-66.66L25.65-15.66L25.65-15.66Q21.92 4.14 15.76 11.92L15.76 11.92L15.76 11.92Q12.52 15.96 8.43 17.57L8.43 17.57L8.43 17.57Q4.34 19.19-0.10 19.19L-0.10 19.19L-0.10 19.19Q-4.54 19.19-7.42 17.57L-7.42 17.57L-7.42 17.57Q-10.30 15.96-11.01 13.94ZM59.69 2.02L59.69 2.02L59.69 2.02Q37.47 2.02 37.47-18.89L37.47-18.89L37.47-18.89Q37.47-33.73 45.65-43.33L45.65-43.33L45.65-43.33Q54.34-53.53 69.39-53.53L69.39-53.53L69.39-53.53Q80.30-53.53 85.85-48.48L85.85-48.48L85.85-48.48Q91.41-43.43 91.41-32.83L91.41-32.83L91.41-32.83Q91.41-16.67 82.72-7.27L82.72-7.27L82.72-7.27Q74.24 2.02 59.69 2.02ZM62.32-41.91L62.32-41.91L62.32-41.91Q61.11-39.19 60.15-35.10L60.15-35.10L60.15-35.10Q59.19-31.01 57.97-24.54L57.97-24.54L57.97-24.54Q56.76-18.08 56.76-10.10L56.76-10.10L56.76-10.10Q56.76-7.47 57.62-5.76L57.62-5.76L57.62-5.76Q58.48-4.04 60.80-4.04L60.80-4.04L60.80-4.04Q63.13-4.04 64.59-5.15L64.59-5.15L64.59-5.15Q66.05-6.26 67.17-8.89L67.17-8.89L67.17-8.89Q69.19-13.53 70.80-22.17L70.80-22.17L70.80-22.17Q72.42-30.81 72.57-34.54L72.57-34.54L72.57-34.54Q72.72-38.28 72.72-41.06L72.72-41.06L72.72-41.06Q72.72-43.83 71.91-45.65L71.91-45.65L71.91-45.65Q71.10-47.47 68.83-47.47L68.83-47.47L68.83-47.47Q66.56-47.47 65.04-46.06L65.04-46.06L65.04-46.06Q63.53-44.64 62.32-41.91ZM140.09 2.02L140.09 2.02L140.09 2.02Q127.87 2.02 127.87-7.47L127.87-7.47L127.87-7.47Q127.97-10.10 128.78-14.54L128.78-14.54L130.59-23.84L130.59-23.84Q133.32-36.97 133.32-39.90L133.32-39.90L133.32-39.90Q133.32-45.75 129.89-45.75L129.89-45.75L129.89-45.75Q124.13-45.75 121.10-30.70L121.10-30.70L115.14 0L94.84 2.02L105.34-51.61L121.91-53.53L120.29-43.63L120.29-43.63Q125.04-53.53 139.58-53.53L139.58-53.53L139.58-53.53Q146.65-53.53 149.63-50.55L149.63-50.55L149.63-50.55Q152.61-47.57 152.61-40.91L152.61-40.91L152.61-40.91Q152.61-34.64 149.38-20.00L149.38-20.00L149.38-20.00Q147.86-13.43 147.86-10.96L147.86-10.96L147.86-10.96Q147.86-8.48 149.23-7.07L149.23-7.07L149.23-7.07Q150.59-5.66 152.61-5.45L152.61-5.45L152.61-5.45Q151.60-2.02 148.12 0L148.12 0L148.12 0Q144.63 2.02 140.09 2.02ZM203.41 2.02L203.41 2.02L203.41 2.02Q191.19 2.02 191.19-7.47L191.19-7.47L191.19-7.47Q191.29-10.10 192.10-14.54L192.10-14.54L193.92-23.84L193.92-23.84Q196.65-36.97 196.65-39.90L196.65-39.90L196.65-39.90Q196.65-45.75 193.21-45.75L193.21-45.75L193.21-45.75Q187.46-45.75 184.43-30.70L184.43-30.70L178.47 0L158.17 2.02L168.67-51.61L185.23-53.53L183.62-43.63L183.62-43.63Q188.37-53.53 202.91-53.53L202.91-53.53L202.91-53.53Q209.98-53.53 212.96-50.55L212.96-50.55L212.96-50.55Q215.94-47.57 215.94-40.91L215.94-40.91L215.94-40.91Q215.94-34.64 212.71-20.00L212.71-20.00L212.71-20.00Q211.19-13.43 211.19-10.96L211.19-10.96L211.19-10.96Q211.19-8.48 212.55-7.07L212.55-7.07L212.55-7.07Q213.92-5.66 215.94-5.45L215.94-5.45L215.94-5.45Q214.93-2.02 211.44 0L211.44 0L211.44 0Q207.96 2.02 203.41 2.02ZM256.14-11.41L256.14-11.41L256.14-11.41Q250.88-5.96 241.29-5.96L241.29-5.96L241.29-5.96Q229.27-5.96 226.75-14.75L226.75-14.75L226.75-14.75Q225.94-17.37 225.94-20.30L225.94-20.30L225.94-20.30Q225.94-23.23 226.54-26.26L226.54-26.26L231.29-51.51L251.79-53.53L246.24-24.14L246.24-24.14Q246.04-22.83 245.73-21.41L245.73-21.41L245.73-21.41Q245.43-20.00 245.43-18.53L245.43-18.53L245.43-18.53Q245.43-17.07 245.94-16.11L245.94-16.11L245.94-16.11Q246.44-15.15 247.15-14.54L247.15-14.54L247.15-14.54Q248.36-13.74 250.53-13.74L250.53-13.74L250.53-13.74Q252.70-13.74 254.57-16.36L254.57-16.36L254.57-16.36Q256.44-18.99 257.35-23.53L257.35-23.53L262.90-51.51L282.80-53.53L275.23-13.84L275.23-13.84Q271.49 5.56 263.81 13.23L263.81 13.23L263.81 13.23Q259.87 17.17 254.77 18.74L254.77 18.74L254.77 18.74Q249.67 20.30 243.11 20.30L243.11 20.30L243.11 20.30Q232.50 20.30 226.44 16.97L226.44 16.97L226.44 16.97Q220.38 13.64 220.38 8.08L220.38 8.08L220.38 8.08Q220.38 3.94 223.51 1.57L223.51 1.57L223.51 1.57Q226.64-0.81 231.49-0.81L231.49-0.81L231.49-0.81Q235.73-0.81 238.97 1.01L238.97 1.01L238.97 1.01Q240.89 2.12 241.79 3.54L241.79 3.54L241.79 3.54Q239.47 5.56 239.47 8.89L239.47 8.89L239.47 8.89Q239.47 13.33 243.51 13.33L243.51 13.33L243.51 13.33Q250.18 13.33 254.02-2.02L254.02-2.02L254.02-2.02Q255.13-6.57 256.14-11.41ZM344.92-7.58L344.92-7.58L344.92-7.58Q344.92-14.65 347.74-28.79L347.74-28.79L332.80-28.79L327.24 0L306.13 0L318.96-66.66L340.27-66.66L334.41-36.87L349.36-36.87L354.91-66.66L376.23-66.66L376.23-66.66Q374.81-59.19 372.99-50.80L372.99-50.80L369.56-34.34L369.56-34.34Q365.72-15.15 365.72-6.77L365.72-6.77L365.72-6.77Q365.72-3.33 366.83-1.41L366.83-1.41L366.83-1.41Q361.78 2.02 355.87 2.02L355.87 2.02L355.87 2.02Q349.97 2.02 347.44-0.81L347.44-0.81L347.44-0.81Q344.92-3.64 344.92-7.58ZM419.55-17.07L419.55-17.07L419.55-17.07Q422.08-15.35 422.08-11.56L422.08-11.56L422.08-11.56Q422.08-7.78 420.16-5.35L420.16-5.35L420.16-5.35Q418.24-2.93 415.11-1.31L415.11-1.31L415.11-1.31Q408.65 2.02 401.68 2.02L401.68 2.02L401.68 2.02Q394.71 2.02 390.62 0.51L390.62 0.51L390.62 0.51Q386.53-1.01 383.80-3.84L383.80-3.84L383.80-3.84Q378.45-9.19 378.45-18.99L378.45-18.99L378.45-18.99Q378.45-34.24 386.73-43.53L386.73-43.53L386.73-43.53Q395.62-53.53 411.07-53.53L411.07-53.53L411.07-53.53Q420.67-53.53 425.41-49.49L425.41-49.49L425.41-49.49Q428.95-46.46 428.95-41.51L428.95-41.51L428.95-41.51Q428.95-23.74 398.24-23.74L398.24-23.74L398.24-23.74Q397.84-21.11 397.84-18.89L397.84-18.89L397.84-18.89Q397.84-14.24 399.91-12.47L399.91-12.47L399.91-12.47Q401.98-10.71 405.82-10.71L405.82-10.71L405.82-10.71Q409.66-10.71 413.75-12.47L413.75-12.47L413.75-12.47Q417.84-14.24 419.55-17.07ZM398.95-28.08L398.95-28.08L398.95-28.08Q406.12-28.08 410.26-32.52L410.26-32.52L410.26-32.52Q414.40-36.76 414.40-43.53L414.40-43.53L414.40-43.53Q414.40-45.85 413.54-47.12L413.54-47.12L413.54-47.12Q412.69-48.38 410.97-48.38L410.97-48.38L410.97-48.38Q409.25-48.38 407.79-47.72L407.79-47.72L407.79-47.72Q406.32-47.07 404.81-44.84L404.81-44.84L404.81-44.84Q401.07-39.79 398.95-28.08ZM456.62-5.56L456.62-5.56L456.62-5.56Q453.49 2.02 443.49 2.02L443.49 2.02L443.49 2.02Q438.34 2.02 435.11-1.52L435.11-1.52L435.11-1.52Q432.38-4.65 432.38-7.78L432.38-7.78L432.38-7.78Q432.38-15.96 436.12-31.92L436.12-31.92L439.86-51.51L460.36-53.53L454.20-21.61L454.20-21.61Q452.48-14.14 452.48-11.51L452.48-11.51L452.48-11.51Q452.48-5.76 456.62-5.56ZM441.67-65.55L441.67-65.55L441.67-65.55Q441.67-69.49 444.96-71.61L444.96-71.61L444.96-71.61Q448.24-73.73 452.99-73.73L452.99-73.73L452.99-73.73Q457.73-73.73 460.61-71.61L460.61-71.61L460.61-71.61Q463.49-69.49 463.49-65.55L463.49-65.55L463.49-65.55Q463.49-61.61 460.31-59.59L460.31-59.59L460.31-59.59Q457.13-57.57 452.38-57.57L452.38-57.57L452.38-57.57Q447.63-57.57 444.65-59.59L444.65-59.59L444.65-59.59Q441.67-61.61 441.67-65.55ZM507.93 2.02L507.93 2.02L507.93 2.02Q495.71 2.02 495.71-7.47L495.71-7.47L495.71-7.47Q495.81-10.10 496.62-14.54L496.62-14.54L498.44-23.84L498.44-23.84Q501.16-36.97 501.16-39.90L501.16-39.90L501.16-39.90Q501.16-45.75 497.73-45.75L497.73-45.75L497.73-45.75Q491.97-45.75 488.94-30.70L488.94-30.70L482.98 0L462.68 2.02L473.19-51.61L489.75-53.53L488.13-43.63L488.13-43.63Q492.88-53.53 507.42-53.53L507.42-53.53L507.42-53.53Q514.49-53.53 517.47-50.55L517.47-50.55L517.47-50.55Q520.45-47.57 520.45-40.91L520.45-40.91L520.45-40.91Q520.45-34.64 517.22-20.00L517.22-20.00L517.22-20.00Q515.71-13.43 515.71-10.96L515.71-10.96L515.71-10.96Q515.71-8.48 517.07-7.07L517.07-7.07L517.07-7.07Q518.43-5.66 520.45-5.45L520.45-5.45L520.45-5.45Q519.44-2.02 515.96 0L515.96 0L515.96 0Q512.47 2.02 507.93 2.02Z" fill="#f00" stroke="#0f0" stroke-width="1.8"></path></g></g><g><g transform="translate(-4.720010757446289, 122.01499938964844)"><path d="M-11.01 13.94L-11.01 13.94L-11.01 13.94Q-5.86 13.33-2.63 6.67L-2.63 6.67L-2.63 6.67Q0.71-0.10 3.74-15.66L3.74-15.66L13.53-66.66L35.45-66.66L25.65-15.66L25.65-15.66Q21.92 4.14 15.76 11.92L15.76 11.92L15.76 11.92Q12.52 15.96 8.43 17.57L8.43 17.57L8.43 17.57Q4.34 19.19-0.10 19.19L-0.10 19.19L-0.10 19.19Q-4.54 19.19-7.42 17.57L-7.42 17.57L-7.42 17.57Q-10.30 15.96-11.01 13.94ZM59.69 2.02L59.69 2.02L59.69 2.02Q37.47 2.02 37.47-18.89L37.47-18.89L37.47-18.89Q37.47-33.73 45.65-43.33L45.65-43.33L45.65-43.33Q54.34-53.53 69.39-53.53L69.39-53.53L69.39-53.53Q80.30-53.53 85.85-48.48L85.85-48.48L85.85-48.48Q91.41-43.43 91.41-32.83L91.41-32.83L91.41-32.83Q91.41-16.67 82.72-7.27L82.72-7.27L82.72-7.27Q74.24 2.02 59.69 2.02ZM62.32-41.91L62.32-41.91L62.32-41.91Q61.11-39.19 60.15-35.10L60.15-35.10L60.15-35.10Q59.19-31.01 57.97-24.54L57.97-24.54L57.97-24.54Q56.76-18.08 56.76-10.10L56.76-10.10L56.76-10.10Q56.76-7.47 57.62-5.76L57.62-5.76L57.62-5.76Q58.48-4.04 60.80-4.04L60.80-4.04L60.80-4.04Q63.13-4.04 64.59-5.15L64.59-5.15L64.59-5.15Q66.05-6.26 67.17-8.89L67.17-8.89L67.17-8.89Q69.19-13.53 70.80-22.17L70.80-22.17L70.80-22.17Q72.42-30.81 72.57-34.54L72.57-34.54L72.57-34.54Q72.72-38.28 72.72-41.06L72.72-41.06L72.72-41.06Q72.72-43.83 71.91-45.65L71.91-45.65L71.91-45.65Q71.10-47.47 68.83-47.47L68.83-47.47L68.83-47.47Q66.56-47.47 65.04-46.06L65.04-46.06L65.04-46.06Q63.53-44.64 62.32-41.91ZM140.09 2.02L140.09 2.02L140.09 2.02Q127.87 2.02 127.87-7.47L127.87-7.47L127.87-7.47Q127.97-10.10 128.78-14.54L128.78-14.54L130.59-23.84L130.59-23.84Q133.32-36.97 133.32-39.90L133.32-39.90L133.32-39.90Q133.32-45.75 129.89-45.75L129.89-45.75L129.89-45.75Q124.13-45.75 121.10-30.70L121.10-30.70L115.14 0L94.84 2.02L105.34-51.61L121.91-53.53L120.29-43.63L120.29-43.63Q125.04-53.53 139.58-53.53L139.58-53.53L139.58-53.53Q146.65-53.53 149.63-50.55L149.63-50.55L149.63-50.55Q152.61-47.57 152.61-40.91L152.61-40.91L152.61-40.91Q152.61-34.64 149.38-20.00L149.38-20.00L149.38-20.00Q147.86-13.43 147.86-10.96L147.86-10.96L147.86-10.96Q147.86-8.48 149.23-7.07L149.23-7.07L149.23-7.07Q150.59-5.66 152.61-5.45L152.61-5.45L152.61-5.45Q151.60-2.02 148.12 0L148.12 0L148.12 0Q144.63 2.02 140.09 2.02ZM203.41 2.02L203.41 2.02L203.41 2.02Q191.19 2.02 191.19-7.47L191.19-7.47L191.19-7.47Q191.29-10.10 192.10-14.54L192.10-14.54L193.92-23.84L193.92-23.84Q196.65-36.97 196.65-39.90L196.65-39.90L196.65-39.90Q196.65-45.75 193.21-45.75L193.21-45.75L193.21-45.75Q187.46-45.75 184.43-30.70L184.43-30.70L178.47 0L158.17 2.02L168.67-51.61L185.23-53.53L183.62-43.63L183.62-43.63Q188.37-53.53 202.91-53.53L202.91-53.53L202.91-53.53Q209.98-53.53 212.96-50.55L212.96-50.55L212.96-50.55Q215.94-47.57 215.94-40.91L215.94-40.91L215.94-40.91Q215.94-34.64 212.71-20.00L212.71-20.00L212.71-20.00Q211.19-13.43 211.19-10.96L211.19-10.96L211.19-10.96Q211.19-8.48 212.55-7.07L212.55-7.07L212.55-7.07Q213.92-5.66 215.94-5.45L215.94-5.45L215.94-5.45Q214.93-2.02 211.44 0L211.44 0L211.44 0Q207.96 2.02 203.41 2.02ZM256.14-11.41L256.14-11.41L256.14-11.41Q250.88-5.96 241.29-5.96L241.29-5.96L241.29-5.96Q229.27-5.96 226.75-14.75L226.75-14.75L226.75-14.75Q225.94-17.37 225.94-20.30L225.94-20.30L225.94-20.30Q225.94-23.23 226.54-26.26L226.54-26.26L231.29-51.51L251.79-53.53L246.24-24.14L246.24-24.14Q246.04-22.83 245.73-21.41L245.73-21.41L245.73-21.41Q245.43-20.00 245.43-18.53L245.43-18.53L245.43-18.53Q245.43-17.07 245.94-16.11L245.94-16.11L245.94-16.11Q246.44-15.15 247.15-14.54L247.15-14.54L247.15-14.54Q248.36-13.74 250.53-13.74L250.53-13.74L250.53-13.74Q252.70-13.74 254.57-16.36L254.57-16.36L254.57-16.36Q256.44-18.99 257.35-23.53L257.35-23.53L262.90-51.51L282.80-53.53L275.23-13.84L275.23-13.84Q271.49 5.56 263.81 13.23L263.81 13.23L263.81 13.23Q259.87 17.17 254.77 18.74L254.77 18.74L254.77 18.74Q249.67 20.30 243.11 20.30L243.11 20.30L243.11 20.30Q232.50 20.30 226.44 16.97L226.44 16.97L226.44 16.97Q220.38 13.64 220.38 8.08L220.38 8.08L220.38 8.08Q220.38 3.94 223.51 1.57L223.51 1.57L223.51 1.57Q226.64-0.81 231.49-0.81L231.49-0.81L231.49-0.81Q235.73-0.81 238.97 1.01L238.97 1.01L238.97 1.01Q240.89 2.12 241.79 3.54L241.79 3.54L241.79 3.54Q239.47 5.56 239.47 8.89L239.47 8.89L239.47 8.89Q239.47 13.33 243.51 13.33L243.51 13.33L243.51 13.33Q250.18 13.33 254.02-2.02L254.02-2.02L254.02-2.02Q255.13-6.57 256.14-11.41ZM344.92-7.58L344.92-7.58L344.92-7.58Q344.92-14.65 347.74-28.79L347.74-28.79L332.80-28.79L327.24 0L306.13 0L318.96-66.66L340.27-66.66L334.41-36.87L349.36-36.87L354.91-66.66L376.23-66.66L376.23-66.66Q374.81-59.19 372.99-50.80L372.99-50.80L369.56-34.34L369.56-34.34Q365.72-15.15 365.72-6.77L365.72-6.77L365.72-6.77Q365.72-3.33 366.83-1.41L366.83-1.41L366.83-1.41Q361.78 2.02 355.87 2.02L355.87 2.02L355.87 2.02Q349.97 2.02 347.44-0.81L347.44-0.81L347.44-0.81Q344.92-3.64 344.92-7.58ZM419.55-17.07L419.55-17.07L419.55-17.07Q422.08-15.35 422.08-11.56L422.08-11.56L422.08-11.56Q422.08-7.78 420.16-5.35L420.16-5.35L420.16-5.35Q418.24-2.93 415.11-1.31L415.11-1.31L415.11-1.31Q408.65 2.02 401.68 2.02L401.68 2.02L401.68 2.02Q394.71 2.02 390.62 0.51L390.62 0.51L390.62 0.51Q386.53-1.01 383.80-3.84L383.80-3.84L383.80-3.84Q378.45-9.19 378.45-18.99L378.45-18.99L378.45-18.99Q378.45-34.24 386.73-43.53L386.73-43.53L386.73-43.53Q395.62-53.53 411.07-53.53L411.07-53.53L411.07-53.53Q420.67-53.53 425.41-49.49L425.41-49.49L425.41-49.49Q428.95-46.46 428.95-41.51L428.95-41.51L428.95-41.51Q428.95-23.74 398.24-23.74L398.24-23.74L398.24-23.74Q397.84-21.11 397.84-18.89L397.84-18.89L397.84-18.89Q397.84-14.24 399.91-12.47L399.91-12.47L399.91-12.47Q401.98-10.71 405.82-10.71L405.82-10.71L405.82-10.71Q409.66-10.71 413.75-12.47L413.75-12.47L413.75-12.47Q417.84-14.24 419.55-17.07ZM398.95-28.08L398.95-28.08L398.95-28.08Q406.12-28.08 410.26-32.52L410.26-32.52L410.26-32.52Q414.40-36.76 414.40-43.53L414.40-43.53L414.40-43.53Q414.40-45.85 413.54-47.12L413.54-47.12L413.54-47.12Q412.69-48.38 410.97-48.38L410.97-48.38L410.97-48.38Q409.25-48.38 407.79-47.72L407.79-47.72L407.79-47.72Q406.32-47.07 404.81-44.84L404.81-44.84L404.81-44.84Q401.07-39.79 398.95-28.08ZM456.62-5.56L456.62-5.56L456.62-5.56Q453.49 2.02 443.49 2.02L443.49 2.02L443.49 2.02Q438.34 2.02 435.11-1.52L435.11-1.52L435.11-1.52Q432.38-4.65 432.38-7.78L432.38-7.78L432.38-7.78Q432.38-15.96 436.12-31.92L436.12-31.92L439.86-51.51L460.36-53.53L454.20-21.61L454.20-21.61Q452.48-14.14 452.48-11.51L452.48-11.51L452.48-11.51Q452.48-5.76 456.62-5.56ZM441.67-65.55L441.67-65.55L441.67-65.55Q441.67-69.49 444.96-71.61L444.96-71.61L444.96-71.61Q448.24-73.73 452.99-73.73L452.99-73.73L452.99-73.73Q457.73-73.73 460.61-71.61L460.61-71.61L460.61-71.61Q463.49-69.49 463.49-65.55L463.49-65.55L463.49-65.55Q463.49-61.61 460.31-59.59L460.31-59.59L460.31-59.59Q457.13-57.57 452.38-57.57L452.38-57.57L452.38-57.57Q447.63-57.57 444.65-59.59L444.65-59.59L444.65-59.59Q441.67-61.61 441.67-65.55ZM507.93 2.02L507.93 2.02L507.93 2.02Q495.71 2.02 495.71-7.47L495.71-7.47L495.71-7.47Q495.81-10.10 496.62-14.54L496.62-14.54L498.44-23.84L498.44-23.84Q501.16-36.97 501.16-39.90L501.16-39.90L501.16-39.90Q501.16-45.75 497.73-45.75L497.73-45.75L497.73-45.75Q491.97-45.75 488.94-30.70L488.94-30.70L482.98 0L462.68 2.02L473.19-51.61L489.75-53.53L488.13-43.63L488.13-43.63Q492.88-53.53 507.42-53.53L507.42-53.53L507.42-53.53Q514.49-53.53 517.47-50.55L517.47-50.55L517.47-50.55Q520.45-47.57 520.45-40.91L520.45-40.91L520.45-40.91Q520.45-34.64 517.22-20.00L517.22-20.00L517.22-20.00Q515.71-13.43 515.71-10.96L515.71-10.96L515.71-10.96Q515.71-8.48 517.07-7.07L517.07-7.07L517.07-7.07Q518.43-5.66 520.45-5.45L520.45-5.45L520.45-5.45Q519.44-2.02 515.96 0L515.96 0L515.96 0Q512.47 2.02 507.93 2.02Z" fill="none" stroke="#fff" stroke-width="2.1"></path></g></g></g><style>text {
  font-size: 64px;
  font-family: Arial Black;
  dominant-baseline: central;
  text-anchor: middle;
}</style></svg>