<svg width="541.7725097656249px" height="130.776318359375px" xmlns="http://www.w3.org/2000/svg" viewBox="-20.886254882812466 9.611840820312494 541.7725097656249 130.776318359375" style="background:#596886" preserveAspectRatio="xMidYMid"><defs><filter id="editing-hover" x="-100%" y="-100%" width="300%" height="300%"><feFlood flood-color="#052b4a" result="flood"></feFlood><feComposite operator="in" in2="SourceAlpha" in="flood" result="shadow"></feComposite><feOffset dx="-4" dy="-4" in="SourceGraphic" result="offset-1"></feOffset><feOffset dx="4" dy="4" in="shadow" result="offset-2"></feOffset><feMerge><feMergeNode in="offset-2"></feMergeNode><feMergeNode in="offset-1"></feMergeNode></feMerge></filter></defs><g filter="url(#editing-hover)"><g transform="translate(60.33000183105469, 103.32281112670898)"><path d="M2.94-9.41L3.97-9.41L9.22-8.84L11.47-8.84L11.47-8.84Q15.81-8.84 17.77-10.63L17.77-10.63L17.77-10.63Q19.72-12.41 19.72-16.63L19.72-16.63L19.72-41.84L19.72-41.84Q19.72-43.06 20.58-43.94L20.58-43.94L20.58-43.94Q21.44-44.81 22.66-44.81L22.66-44.81L28.47-44.81L28.47-44.81Q29.75-44.81 30.63-43.94L30.63-43.94L30.63-43.94Q31.50-43.06 31.50-41.84L31.50-41.84L31.50-16.72L31.50-16.72Q31.50-8.72 26.19-4.36L26.19-4.36L26.19-4.36Q20.88 0 11.78 0L11.78 0L2.94 0L2.94 0Q1.72 0 0.86-0.86L0.86-0.86L0.86-0.86Q0-1.72 0-2.94L0-2.94L0-6.47L0-6.47Q0-7.69 0.83-8.55L0.83-8.55L0.83-8.55Q1.66-9.41 2.94-9.41L2.94-9.41ZM42.09-3.88L42.09-3.88L42.09-3.88Q37.22-8.38 37.22-17.14L37.22-17.14L37.22-17.14Q37.22-25.91 42.09-30.39L42.09-30.39L42.09-30.39Q46.97-34.88 56.11-34.88L56.11-34.88L56.11-34.88Q65.25-34.88 70.13-30.39L70.13-30.39L70.13-30.39Q75-25.91 75-17.14L75-17.14L75-17.14Q75-8.38 70.13-3.88L70.13-3.88L70.13-3.88Q65.25 0.63 56.11 0.63L56.11 0.63L56.11 0.63Q46.97 0.63 42.09-3.88ZM50-25.25L50-25.25L50-25.25Q48.06-22.72 48.06-17.16L48.06-17.16L48.06-17.16Q48.06-11.59 50-9.03L50-9.03L50-9.03Q51.94-6.47 56.11-6.47L56.11-6.47L56.11-6.47Q60.28-6.47 62.23-9.03L62.23-9.03L62.23-9.03Q64.19-11.59 64.19-17.16L64.19-17.16L64.19-17.16Q64.19-22.72 62.23-25.25L62.23-25.25L62.23-25.25Q60.28-27.78 56.11-27.78L56.11-27.78L56.11-27.78Q51.94-27.78 50-25.25ZM80.75-1.91L80.75-1.91L80.75-32.31L80.75-32.31Q80.75-33.16 81.30-33.70L81.30-33.70L81.30-33.70Q81.84-34.25 82.66-34.25L82.66-34.25L89.66-34.25L89.66-34.25Q90.47-34.25 91.02-33.70L91.02-33.70L91.02-33.70Q91.56-33.16 91.56-32.31L91.56-32.31L91.56-30.34L91.56-30.34Q96.94-34.88 103.02-34.88L103.02-34.88L103.02-34.88Q109.09-34.88 112.91-31.17L112.91-31.17L112.91-31.17Q116.72-27.47 116.72-19.84L116.72-19.84L116.72-1.91L116.72-1.91Q116.72-1.09 116.17-0.55L116.17-0.55L116.17-0.55Q115.63 0 114.78 0L114.78 0L107.81 0L107.81 0Q107 0 106.45-0.55L106.45-0.55L106.45-0.55Q105.91-1.09 105.91-1.91L105.91-1.91L105.91-19.84L105.91-19.84Q105.91-27.31 99.94-27.31L99.94-27.31L99.94-27.31Q96.03-27.31 91.56-22.84L91.56-22.84L91.56-1.91L91.56-1.91Q91.56-1.09 91.02-0.55L91.02-0.55L91.02-0.55Q90.47 0 89.66 0L89.66 0L82.66 0L82.66 0Q81.84 0 81.30-0.55L81.30-0.55L81.30-0.55Q80.75-1.09 80.75-1.91ZM124.41-1.91L124.41-1.91L124.41-32.31L124.41-32.31Q124.41-33.16 124.95-33.70L124.95-33.70L124.95-33.70Q125.50-34.25 126.31-34.25L126.31-34.25L133.31-34.25L133.31-34.25Q134.13-34.25 134.67-33.70L134.67-33.70L134.67-33.70Q135.22-33.16 135.22-32.31L135.22-32.31L135.22-30.34L135.22-30.34Q140.59-34.88 146.67-34.88L146.67-34.88L146.67-34.88Q152.75-34.88 156.56-31.17L156.56-31.17L156.56-31.17Q160.38-27.47 160.38-19.84L160.38-19.84L160.38-1.91L160.38-1.91Q160.38-1.09 159.83-0.55L159.83-0.55L159.83-0.55Q159.28 0 158.44 0L158.44 0L151.47 0L151.47 0Q150.66 0 150.11-0.55L150.11-0.55L150.11-0.55Q149.56-1.09 149.56-1.91L149.56-1.91L149.56-19.84L149.56-19.84Q149.56-27.31 143.59-27.31L143.59-27.31L143.59-27.31Q139.69-27.31 135.22-22.84L135.22-22.84L135.22-1.91L135.22-1.91Q135.22-1.09 134.67-0.55L134.67-0.55L134.67-0.55Q134.13 0 133.31 0L133.31 0L126.31 0L126.31 0Q125.50 0 124.95-0.55L124.95-0.55L124.95-0.55Q124.41-1.09 124.41-1.91ZM172.94 3.25L174.09 3.25L178.19 3.78L178.19 3.78Q182.59 3.78 184.34-2.69L184.34-2.69L184.34-2.69Q179.03-2.69 175.47-5.89L175.47-5.89L175.47-5.89Q171.91-9.09 169.34-17.28L169.34-17.28L164.69-32.38L164.69-32.38Q164.59-32.63 164.59-32.95L164.59-32.95L164.59-32.95Q164.59-33.28 164.98-33.75L164.98-33.75L164.98-33.75Q165.38-34.22 166.16-34.25L166.16-34.25L172.69-34.25L172.69-34.25Q173.59-34.25 174.42-33.64L174.42-33.64L174.42-33.64Q175.25-33.03 175.50-32.13L175.50-32.13L179.59-18.88L179.59-18.88Q181.13-14 182.70-12.13L182.70-12.13L182.70-12.13Q184.28-10.25 186.44-10.25L186.44-10.25L192.66-32.13L192.66-32.13Q192.91-33.03 193.64-33.64L193.64-33.64L193.64-33.64Q194.38-34.25 195.28-34.25L195.28-34.25L201.88-34.25L201.88-34.25Q202.66-34.25 203.03-33.75L203.03-33.75L203.03-33.75Q203.41-33.25 203.41-32.92L203.41-32.92L203.41-32.92Q203.41-32.59 203.34-32.38L203.34-32.38L195.16-3.19L195.16-3.19Q192.97 4.56 189.73 7.88L189.73 7.88L189.73 7.88Q186.50 11.19 181.41 11.19L181.41 11.19L181.41 11.19Q176.31 11.19 174.20 10.81L174.20 10.81L174.20 10.81Q172.09 10.44 171.56 9.89L171.56 9.89L171.56 9.89Q171.03 9.34 171.03 8.63L171.03 8.63L171.03 5.19L171.03 5.19Q171.03 4.34 171.56 3.80L171.56 3.80L171.56 3.80Q172.09 3.25 172.94 3.25L172.94 3.25ZM230.91-2.94L230.91-2.94L230.91-41.84L230.91-41.84Q230.91-43.06 231.78-43.94L231.78-43.94L231.78-43.94Q232.66-44.81 233.94-44.81L233.94-44.81L239.75-44.81L239.75-44.81Q240.97-44.81 241.83-43.94L241.83-43.94L241.83-43.94Q242.69-43.06 242.69-41.84L242.69-41.84L242.69-27.78L264.19-27.78L264.19-41.84L264.19-41.84Q264.19-43.06 265.06-43.94L265.06-43.94L265.06-43.94Q265.94-44.81 267.16-44.81L267.16-44.81L272.97-44.81L272.97-44.81Q274.25-44.81 275.11-43.94L275.11-43.94L275.11-43.94Q275.97-43.06 275.97-41.84L275.97-41.84L275.97-2.94L275.97-2.94Q275.97-1.72 275.08-0.86L275.08-0.86L275.08-0.86Q274.19 0 272.97 0L272.97 0L267.16 0L267.16 0Q265.94 0 265.06-0.83L265.06-0.83L265.06-0.83Q264.19-1.66 264.19-2.88L264.19-2.88L264.19-18.94L242.69-18.94L242.69-2.88L242.69-2.88Q242.69-1.66 241.83-0.83L241.83-0.83L241.83-0.83Q240.97 0 239.75 0L239.75 0L233.94 0L233.94 0Q232.72 0 231.81-0.86L231.81-0.86L231.81-0.86Q230.91-1.72 230.91-2.94ZM287.19-3.94L287.19-3.94L287.19-3.94Q282.38-8.50 282.38-17.08L282.38-17.08L282.38-17.08Q282.38-25.66 287.22-30.27L287.22-30.27L287.22-30.27Q292.06-34.88 300.66-34.88L300.66-34.88L300.66-34.88Q309.25-34.88 314.06-30.39L314.06-30.39L314.06-30.39Q318.88-25.91 318.88-17.53L318.88-17.53L318.88-15.75L318.88-15.75Q318.88-14.91 318.33-14.36L318.33-14.36L318.33-14.36Q317.78-13.81 316.94-13.81L316.94-13.81L293.41-13.81L293.41-13.81Q293.72-9.97 295.61-8.22L295.61-8.22L295.61-8.22Q297.50-6.47 301.66-6.47L301.66-6.47L301.66-6.47Q305.81-6.47 307.34-8.34L307.34-8.34L307.34-8.34Q308.88-10.22 311.13-10.25L311.13-10.25L315.78-10.25L315.78-10.25Q316.63-10.25 317.17-9.70L317.17-9.70L317.17-9.70Q317.72-9.16 317.72-8.31L317.72-8.31L317.72-8.31Q317.72 0.66 300.63 0.63L300.63 0.63L300.63 0.63Q292 0.63 287.19-3.94ZM293.34-20.41L293.34-20.41L307.88-20.41L307.88-20.41Q307.56-27.78 300.64-27.78L300.64-27.78L300.64-27.78Q293.72-27.78 293.34-20.41ZM324.63-40.78L324.63-40.78L324.63-41.84L324.63-41.84Q324.63-43.50 325.58-44.47L325.58-44.47L325.58-44.47Q326.53-45.44 328.22-45.44L328.22-45.44L332.09-45.44L332.09-45.44Q333.75-45.44 334.72-44.48L334.72-44.48L334.72-44.48Q335.69-43.53 335.69-41.84L335.69-41.84L335.69-40.78L335.69-40.78Q335.69-39.13 334.73-38.16L334.73-38.16L334.73-38.16Q333.78-37.19 332.09-37.19L332.09-37.19L328.22-37.19L328.22-37.19Q326.56-37.19 325.59-38.16L325.59-38.16L325.59-38.16Q324.63-39.13 324.63-40.78ZM324.75-1.91L324.75-1.91L324.75-31.56L324.75-31.56Q324.75-32.41 325.30-32.94L325.30-32.94L325.30-32.94Q325.84-33.47 326.66-33.47L326.66-33.47L333.66-33.47L333.66-33.47Q334.50-33.47 335.03-32.92L335.03-32.92L335.03-32.92Q335.56-32.38 335.56-31.56L335.56-31.56L335.56-1.91L335.56-1.91Q335.56-1.06 335.02-0.53L335.02-0.53L335.02-0.53Q334.47 0 333.66 0L333.66 0L326.66 0L326.66 0Q325.81 0 325.28-0.53L325.28-0.53L325.28-0.53Q324.75-1.06 324.75-1.91ZM343.38-1.91L343.38-1.91L343.38-32.31L343.38-32.31Q343.38-33.16 343.92-33.70L343.92-33.70L343.92-33.70Q344.47-34.25 345.28-34.25L345.28-34.25L352.28-34.25L352.28-34.25Q353.09-34.25 353.64-33.70L353.64-33.70L353.64-33.70Q354.19-33.16 354.19-32.31L354.19-32.31L354.19-30.34L354.19-30.34Q359.56-34.88 365.64-34.88L365.64-34.88L365.64-34.88Q371.72-34.88 375.53-31.17L375.53-31.17L375.53-31.17Q379.34-27.47 379.34-19.84L379.34-19.84L379.34-1.91L379.34-1.91Q379.34-1.09 378.80-0.55L378.80-0.55L378.80-0.55Q378.25 0 377.41 0L377.41 0L370.44 0L370.44 0Q369.63 0 369.08-0.55L369.08-0.55L369.08-0.55Q368.53-1.09 368.53-1.91L368.53-1.91L368.53-19.84L368.53-19.84Q368.53-27.31 362.56-27.31L362.56-27.31L362.56-27.31Q358.66-27.31 354.19-22.84L354.19-22.84L354.19-1.91L354.19-1.91Q354.19-1.09 353.64-0.55L353.64-0.55L353.64-0.55Q353.09 0 352.28 0L352.28 0L345.28 0L345.28 0Q344.47 0 343.92-0.55L343.92-0.55L343.92-0.55Q343.38-1.09 343.38-1.91Z" fill="#ffd5af"></path></g></g><style>text {
  font-size: 64px;
  font-family: Arial Black;
  dominant-baseline: central;
  text-anchor: middle;
}</style></svg>